<?xml version="1.0" encoding="UTF-8"?>
<svg width="184px" height="28px" viewBox="0 0 184 28" version="1.1" xmlns="http://www.w3.org/2000/svg" xmlns:xlink="http://www.w3.org/1999/xlink">
    <title>StackBlitz sdk tutorial - white</title>
    <g id="Page-1" stroke="none" stroke-width="1" fill="none" fill-rule="evenodd">
        <g id="StackBlitz-sdk-tutorial---white" fill="#FFFFFF">
            <text id="Tutorial" font-family="Gilroy-UltraLight, Gilroy" font-size="18" font-weight="300" letter-spacing="-0.0857142857">
                <tspan x="123.989714" y="23">Tutorial</tspan>
            </text>
            <g id="Group" transform="translate(89.000000, 0.000000)">
                <path d="M3.71429,1.92593 C3.71429,2.9897 2.88282,3.8519 1.85714,3.8519 C0.831462,3.8519 0,2.9897 0,1.92593 C0,0.8622 0.831462,0 1.85714,0 C2.88282,0 3.71429,0.8622 3.71429,1.92593 Z" id="Path" fill-rule="nonzero"></path>
                <path d="M0,9.0444 C0,7.7724 1.04432,6.7407 2.33254,6.7407 L23.6675,6.7407 C24.9557,6.7407 26,7.7724 26,9.0444 L26,23.6964 C26,24.9684 24.9557,26 23.6675,26 L2.33254,26 C1.04432,26 0,24.9684 0,23.6964 L0,9.0444 Z M5.23271429,22.182 C6.63671429,22.182 7.93671429,21.545 7.93671429,20.05 C7.93671429,17.645 4.73871429,18.139 4.73871429,17.398 C4.73871429,17.164 4.94671429,17.034 5.28471429,17.034 C5.71371429,17.034 5.97371429,17.268 6.15571429,17.606 L7.81971429,16.709 C7.27371429,15.786 6.33771429,15.318 5.28471429,15.318 C3.93271429,15.318 2.73671429,16.033 2.73671429,17.45 C2.73671429,19.699 5.93471429,19.322 5.93471429,20.037 C5.93471429,20.297 5.70071429,20.44 5.23271429,20.44 C4.66071429,20.44 4.29671429,20.167 4.12771429,19.673 L2.43771429,20.635 C2.94471429,21.688 3.93271429,22.182 5.23271429,22.182 Z M11.5668095,22.182 C12.4378095,22.182 13.0748095,21.883 13.5038095,21.389 L13.5038095,22 L15.4538095,22 L15.4538095,12.9 L13.5038095,12.9 L13.5038095,16.111 C13.0748095,15.617 12.4378095,15.318 11.5668095,15.318 C9.86380952,15.318 8.45980952,16.813 8.45980952,18.75 C8.45980952,20.687 9.86380952,22.182 11.5668095,22.182 Z M11.9568095,20.336 C11.0598095,20.336 10.4098095,19.725 10.4098095,18.75 C10.4098095,17.775 11.0598095,17.164 11.9568095,17.164 C12.8538095,17.164 13.5038095,17.775 13.5038095,18.75 C13.5038095,19.725 12.8538095,20.336 11.9568095,20.336 Z M18.7719048,22 L18.7719048,19.127 L20.8519048,22 L23.0619048,22 L20.6309048,18.75 L22.9969048,15.5 L20.7219048,15.5 L18.7719048,18.347 L18.7719048,12.9 L16.8219048,12.9 L16.8219048,22 L18.7719048,22 Z" id="Shape"></path>
                <path d="M7.42857,3.8519 C8.45425,3.8519 9.28571,2.9897 9.28571,1.92593 C9.28571,0.8622 8.45425,0 7.42857,0 C6.40289,0 5.57143,0.8622 5.57143,1.92593 C5.57143,2.9897 6.40289,3.8519 7.42857,3.8519 Z" id="Path" fill-rule="nonzero"></path>
                <path d="M14.6087,0 C13.7202,0 13,0.86227 13,1.92593 C13,2.9896 13.7202,3.8519 14.6087,3.8519 L24.3913,3.8519 C25.2798,3.8519 26,2.9896 26,1.92593 C26,0.86227 25.2798,0 24.3913,0 L14.6087,0 Z" id="Path" fill-rule="nonzero"></path>
            </g>
            <text id="StackBlitz" font-family="Gilroy-SemiBold, Gilroy" font-size="18" font-weight="500" letter-spacing="-0.0857142857">
                <tspan x="0.371142857" y="23">StackBlitz</tspan>
            </text>
        </g>
    </g>
</svg>